# xmcd
#
# Track frame offsets:
#	150
#	15548
#	34414
#	54601
#	67874
#	79605
#	92997
#	106906
#	120574
#	130625
#	137976
#	156860
#	167738
#	178065
#	194908
#
# Disc length: 2929 seconds
#
# Revision: 0
# Processed by: cddbd v1.5.2PL0 Copyright (c) Steve Scherf et al.
# Submitted via: dBpowerAMP V4.0
#
DISCID=ce0b6f0f
DTITLE=Various Artist - Blues - Definitive Collection CD6 Road to Memphis
DYEAR=1900
DGENRE=Blues
TTITLE0=Albert King - Born Under a Bad Sign
TTITLE1=Geater Davis - Sad Shades of Blue
TTITLE2=Lightnin' Hopkins - Glory Be
TTITLE3=John Lee Hooker - One Bourbon One Scotch One Beer
TTITLE4=Howlin' Wolf - Louise
TTITLE5=Lightnin' Slim - That's All Right
TTITLE6=Bo Diddley - You Can't Judge a Book by the Cover
TTITLE7=Big Bill Broonzy  Washboard Sam - All by Myself
TTITLE8=Otis Rush - I Can't Stop Baby
TTITLE9=Big Joe Williams - Terraplane Blues
TTITLE10=Muddy Waters - Got My Mojo Working
TTITLE11=Memphis Slim  Willie Dixon - Crazy for My Baby
TTITLE12=Dale Hawkins - Suzie Q
TTITLE13=Howlin' Wolf - Sittin' on Top of the World
TTITLE14=Screamin' Jay Hawkins - Constipation Blues
EXTD=
EXTT0=
EXTT1=
EXTT2=
EXTT3=
EXTT4=
EXTT5=
EXTT6=
EXTT7=
EXTT8=
EXTT9=
EXTT10=
EXTT11=
EXTT12=
EXTT13=
EXTT14=
PLAYORDER=
